# xmcd
#
# Track frame offsets:
# 150
# 20306
# 41079
# 58102
# 81280
# 99950
# 118367
# 140667
# 156505
# 176040
# 195044
# 215320
# 237037
# 257143
# 276043
# 298572
# 315824
# 338101
#
# Disc length: 4623 seconds
#
#
# Revision: 0
# Processed by: cddbd v1.5.1PL0 Copyright (c) Steve Scherf et al.
# Submitted via: FreeRIP 2.70 
#
DISCID=fd120d12
DTITLE=Vanni and Maricel - Vanni and Maricel
DYEAR=2001
DGENRE=Blues
TTITLE0=I've fallen for you
TTITLE1=Love Moves in Mysterious Ways
TTITLE2=You
TTITLE3=Suddenly it's Magic
TTITLE4=I will (take you)
TTITLE5=For all of my Life
TTITLE6=For You I Will
TTITLE7=Got to believe in Magic
TTITLE8=When you say Nothing at all
TTITLE9=No Ordinary Love
TTITLE10=I'll be Loving you Forever
TTITLE11=Finally Round
TTITLE12=Only You (Just You)
TTITLE13=Fallin
TTITLE14=The Flight
TTITLE15=Baby now that I found You
TTITLE16=Everytime I close my Eyes
TTITLE17=
EXTD=
EXTT0=
EXTT1=
EXTT2=
EXTT3=
EXTT4=
EXTT5=
EXTT6=
EXTT7=
EXTT8=
EXTT9=
EXTT10=
EXTT11=
EXTT12=
EXTT13=
EXTT14=
EXTT15=
EXTT16=
EXTT17=
PLAYORDER=
